# xmcd
#
# Track frame offsets:
#	150
#	13842
#	39456
#	59568
#	80708
#	96962
#	112965
#	130580
#	151910
#	169304
#	188389
#	204178
#	219886
#	231203
#	241053
#	260799
#	271949
#	281822
#	294213
#
# Disc length: 4117
#
# Revision: 4
# Processed by: cddbd v1.5.1PL0 Copyright (c) Steve Scherf et al.
# Submitted via: CDex 1.40Beta9
# Normalized: r2:TDELIM( - ),TSWAP
#
DISCID=06101313
DTITLE=The Bastard Brothers - We can be friends
DYEAR=2001
DGENRE=
TTITLE0=Harry Belafonte - Banana Boat
TTITLE1=The Eagles - Hotel California
TTITLE2=Kool and The Gang - Celebration
TTITLE3=Simon and Garfunkel - The Boxer
TTITLE4=Bob Marley - No woman, no cry
TTITLE5=Elton John - Crocodile Rock
TTITLE6=The Beatles - Let it be
TTITLE7=Oasis - Don't look back in anger
TTITLE8=Johnny Nash - I can see clearly now
TTITLE9=Neneh Cherry and Youssou N'Dour - Seven Seconds
TTITLE10=Spin Doctors - Two Princess
TTITLE11=Eddy Grant - Joanna
TTITLE12=David Dundas - Jeans on
TTITLE13=Sam Cooke - Wonderful World
TTITLE14=Crowded House - Weather with you
TTITLE15=The Tokens - The Lion sleeps tonight
TTITLE16=The Police - So lonely
TTITLE17=The Bastard Brothers - We can be friends
TTITLE18=The Blues Brothers - Everybody needs somebody
EXTD=YEAR: 2001
EXTT0=
EXTT1=
EXTT2=
EXTT3=
EXTT4=
EXTT5=
EXTT6=
EXTT7=
EXTT8=
EXTT9=
EXTT10=
EXTT11=
EXTT12=
EXTT13=
EXTT14=
EXTT15=
EXTT16=
EXTT17=
EXTT18=
PLAYORDER=
